<svg width="208" height="123" viewBox="0 0 208 123" fill="none" xmlns="http://www.w3.org/2000/svg">
<path d="M12.1187 60.0303C38.4149 24.8947 64.0187 10.6091 101.639 8.53776C141.731 9.12484 160.298 23.4439 193.819 60.0303L191.75 61.7958C160.885 30.0087 141.916 12.9401 101.639 11.4802C63.6261 15.0517 44.8757 27.4842 14.4822 62.09L12.1187 60.0303Z" fill="#EE9416"/>
<path d="M167.228 99.4589C141.862 113.837 129.664 117.654 101.639 119.173C65.9507 116.697 38.4134 97.3992 38.4134 97.3992C21.9977 85.4396 13.464 77.9342 0.30075 62.09C-2.39939 66.8381 13.3054 85.4871 38.4135 102.107C57.3155 116.387 79.0832 122.469 101.639 122.998C121.816 123.092 144.835 119.386 167.228 103.873C183.049 93.5984 196.866 79.7456 208 62.6785C193.766 78.1673 184.999 86.3266 167.228 99.4589Z" fill="#EE9416"/>
<path fill-rule="evenodd" clip-rule="evenodd" d="M101.639 0.00469377C51.1201 -0.497448 12.1143 39.4098 0.30075 62.09C13.464 77.9342 21.9977 85.4396 38.4134 97.3992C38.4134 97.3992 65.9507 116.697 101.639 119.173C129.664 117.654 141.862 113.837 167.228 99.4589C184.999 86.3266 193.766 78.1673 208 62.6785C193.598 40.8332 151.299 0.498301 101.639 0.00469377ZM12.1187 60.0303C38.4149 24.8947 64.0187 10.6091 101.639 8.53776C141.731 9.12484 160.298 23.4439 193.819 60.0303L191.75 61.7958C154.961 97.952 135.52 111.289 101.639 110.052C67.7578 108.814 36.9472 89.5363 14.4822 62.09L12.1187 60.0303Z" fill="#EEC316"/>
<path fill-rule="evenodd" clip-rule="evenodd" d="M191.75 61.7958C160.885 30.0087 141.916 12.9401 101.639 11.4802C63.6261 15.0517 44.8757 27.4842 14.4822 62.09C36.9472 89.5363 67.7578 108.814 101.639 110.052C135.52 111.289 154.961 97.952 191.75 61.7958ZM101.639 19.719C69.8467 20.5849 46.4483 35.1966 23.9365 63.8555C49.4117 90.1778 65.8925 100.108 101.639 103.873C137.248 101.204 155.363 93.8799 182.296 63.8555C159.641 39.0542 148.165 21.4578 101.639 19.719Z" fill="#EE6216"/>
<path fill-rule="evenodd" clip-rule="evenodd" d="M23.9365 63.8555C46.4483 35.1966 69.8467 20.5849 101.639 19.719C148.165 21.4578 159.641 39.0542 182.296 63.8555C155.363 93.8799 137.248 101.204 101.639 103.873C65.8925 100.108 49.4117 90.1778 23.9365 63.8555ZM58.5038 60.0303C60.7569 35.8849 73.4111 27.3885 101.639 23.25C135.139 24.5875 144.475 39.567 146.547 60.0303C143.281 84.9757 131.893 92.0304 101.639 97.3992C73.3118 91.5467 62.5063 85.1716 58.5038 60.0303Z" fill="#EE7B16"/>
<path fill-rule="evenodd" clip-rule="evenodd" d="M101.639 23.25C73.4111 27.3885 60.7569 35.8849 58.5038 60.0303C62.5063 85.1716 73.3118 91.5467 101.639 97.3992C131.893 92.0304 143.281 84.9757 146.547 60.0303C144.475 39.567 135.139 24.5875 101.639 23.25ZM75.6397 60.0303C77.3011 40.5198 81.2884 32.5292 101.639 31.4888C125.063 31.9623 129.474 41.7123 130.593 60.0303C129.214 77.5207 124.78 82.9962 101.639 85.6295C85.2113 82.9232 78.5006 79.1664 75.6397 60.0303Z" fill="#FFC30E"/>
<path fill-rule="evenodd" clip-rule="evenodd" d="M75.6397 60.0303C77.3011 40.5198 81.2884 32.5292 101.639 31.4888C125.063 31.9623 129.474 41.7123 130.593 60.0303C129.214 77.5207 124.78 82.9962 101.639 85.6295C85.2113 82.9232 78.5006 79.1664 75.6397 60.0303ZM104.889 49.1434C105.882 43.752 107.705 42.2723 112.275 41.7873C116.84 42.7829 118.612 44.1637 119.366 49.1434C118.837 54.7225 116.938 56.1195 112.275 56.7937C107.697 55.446 105.907 53.9297 104.889 49.1434Z" fill="#540763"/>
<path d="M112.275 41.7873C107.705 42.2723 105.882 43.752 104.889 49.1434C105.907 53.9297 107.697 55.446 112.275 56.7937C116.938 56.1195 118.837 54.7225 119.366 49.1434C118.612 44.1637 116.84 42.7829 112.275 41.7873Z" fill="#E0D5C6"/>
</svg>
