<svg width="754" height="210" viewBox="0 0 754 210" fill="none" xmlns="http://www.w3.org/2000/svg">
<path d="M170.509 102.008C215.011 42.3029 258.342 18.0278 322.009 14.508C389.858 15.5056 421.28 39.8376 478.009 102.008L474.509 105.008C422.274 50.993 390.172 21.9889 322.009 19.508C257.678 25.5769 225.945 46.7032 174.509 105.508L170.509 102.008Z" fill="#EE9416"/>
<path d="M433.009 169.008C390.08 193.441 369.437 199.926 322.009 202.508C261.612 198.301 215.009 165.508 215.009 165.508C187.228 145.185 172.786 132.432 150.509 105.508C145.939 113.576 172.517 145.266 215.009 173.508C246.998 197.774 283.837 208.109 322.009 209.008C356.155 209.167 395.112 202.87 433.009 176.508C459.782 159.049 483.167 135.51 502.009 106.508C477.919 132.828 463.082 146.693 433.009 169.008Z" fill="#EE9416"/>
<path fill-rule="evenodd" clip-rule="evenodd" d="M322.009 0.007976C236.513 -0.845301 170.502 66.9681 150.509 105.508C172.786 132.432 187.228 145.185 215.009 165.508C215.009 165.508 261.612 198.301 322.009 202.508C369.437 199.926 390.08 193.441 433.009 169.008C463.082 146.693 477.919 132.828 502.009 106.508C477.635 69.3867 406.052 0.84675 322.009 0.007976ZM170.509 102.008C215.011 42.3029 258.342 18.0278 322.009 14.508C389.858 15.5056 421.28 39.8376 478.009 102.008L474.509 105.008C412.248 166.447 379.348 189.111 322.009 187.008C264.67 184.905 212.528 152.147 174.509 105.508L170.509 102.008Z" fill="#EEC316"/>
<path fill-rule="evenodd" clip-rule="evenodd" d="M474.509 105.008C422.274 50.993 390.172 21.9889 322.009 19.508C257.678 25.5769 225.945 46.7032 174.509 105.508C212.528 152.147 264.67 184.905 322.009 187.008C379.348 189.111 412.248 166.447 474.509 105.008ZM322.009 33.5081C268.205 34.9794 228.607 59.8086 190.509 108.508C233.622 153.237 261.513 170.111 322.009 176.508C382.272 171.973 412.93 159.528 458.509 108.508C420.168 66.3638 400.747 36.4628 322.009 33.5081Z" fill="#EE6216"/>
<path fill-rule="evenodd" clip-rule="evenodd" d="M190.509 108.508C228.607 59.8086 268.205 34.9794 322.009 33.5081C400.747 36.4628 420.168 66.3638 458.509 108.508C412.93 159.528 382.272 171.973 322.009 176.508C261.513 170.111 233.622 153.237 190.509 108.508ZM249.009 102.008C252.822 60.9783 274.237 46.5406 322.009 39.5081C378.702 41.7809 394.502 67.2352 398.009 102.008C392.482 144.397 373.209 156.385 322.009 165.508C274.069 155.563 255.783 144.73 249.009 102.008Z" fill="#EE7B16"/>
<path fill-rule="evenodd" clip-rule="evenodd" d="M322.009 39.5081C274.237 46.5406 252.822 60.9783 249.009 102.008C255.783 144.73 274.069 155.563 322.009 165.508C373.209 156.385 392.482 144.397 398.009 102.008C394.502 67.2352 378.702 41.7809 322.009 39.5081ZM278.009 102.008C280.821 68.8543 287.569 55.276 322.009 53.5081C361.651 54.3128 369.115 70.8806 371.009 102.008C368.676 131.729 361.172 141.033 322.009 145.508C294.207 140.909 282.851 134.526 278.009 102.008Z" fill="#FFC30E"/>
<path fill-rule="evenodd" clip-rule="evenodd" d="M278.009 102.008C280.821 68.8543 287.569 55.276 322.009 53.5081C361.651 54.3128 369.115 70.8806 371.009 102.008C368.676 131.729 361.172 141.033 322.009 145.508C294.207 140.909 282.851 134.526 278.009 102.008ZM327.509 83.5081C329.189 74.3467 332.274 71.8323 340.009 71.0081C347.734 72.6999 350.733 75.0462 352.009 83.5081C351.114 92.9886 347.901 95.3624 340.009 96.5081C332.26 94.2179 329.232 91.6413 327.509 83.5081Z" fill="#540763"/>
<path d="M340.009 71.0081C332.274 71.8323 329.189 74.3467 327.509 83.5081C329.232 91.6413 332.26 94.2179 340.009 96.5081C347.901 95.3624 351.114 92.9886 352.009 83.5081C350.733 75.0462 347.734 72.6999 340.009 71.0081Z" fill="#E0D5C6"/>
<mask id="path-2-outside-1_4_120" maskUnits="userSpaceOnUse" x="0" y="59" width="754" height="89" fill="black">
<rect fill="white" y="59" width="754" height="89"/>
<path d="M14.1074 135C12.0566 135 11.0312 133.901 11.0312 131.704V75.2783C11.0312 73.0811 12.0566 71.9824 14.1074 71.9824H26.8516C28.5508 71.9824 29.7666 73.1543 30.499 75.498L42.4082 114.038C42.9355 115.708 43.3018 117.085 43.5068 118.169C43.7119 119.224 43.8877 120.483 44.0342 121.948H44.2979C44.4443 120.483 44.6201 119.224 44.8252 118.169C45.0303 117.085 45.3965 115.708 45.9238 114.038L57.833 75.498C58.5654 73.1543 59.7812 71.9824 61.4805 71.9824H74.2246C76.2754 71.9824 77.3008 73.0811 77.3008 75.2783V131.704C77.3008 133.901 76.2754 135 74.2246 135H67.5449C65.4941 135 64.4688 133.901 64.4688 131.704V95.4053C64.4688 93.6475 64.542 91.8896 64.6885 90.1318H64.3809L51.6807 131.44C50.9482 133.813 49.6885 135 47.9014 135H40.4307C38.6436 135 37.3838 133.813 36.6514 131.44L23.9512 90.1318H23.6436C23.79 91.8896 23.8633 93.6475 23.8633 95.4053V131.704C23.8633 133.901 22.8379 135 20.7871 135H14.1074ZM88.8145 75.7617C87.3203 73.2422 88.0088 71.9824 90.8799 71.9824H98.5703C100.094 71.9824 101.441 72.9932 102.613 75.0146L111.974 91.3184C112.237 91.7578 113.014 93.1348 114.303 95.4492C115.592 97.7344 116.339 99.9609 116.544 102.129H116.72C116.925 99.9609 117.672 97.7344 118.961 95.4492C120.25 93.1348 121.026 91.7578 121.29 91.3184L130.65 75.0146C131.822 72.9932 133.17 71.9824 134.693 71.9824H142.384C145.255 71.9824 145.943 73.2422 144.449 75.7617L123.048 111.929V132.583C123.048 134.194 122.022 135 119.972 135H113.292C111.241 135 110.216 134.194 110.216 132.583V111.929L88.8145 75.7617ZM521.368 130.298C519.552 128.921 519.112 127.529 520.05 126.123L523.434 121.025C524.547 119.355 526.173 119.268 528.312 120.762C529.952 121.904 532.091 123.091 534.728 124.321C537.394 125.522 540.191 126.123 543.121 126.123C545.172 126.123 547.149 125.889 549.054 125.42C550.958 124.951 552.408 124.043 553.404 122.695C554.4 121.348 554.898 119.751 554.898 117.905C554.898 116.587 554.679 115.43 554.239 114.434C553.8 113.438 553.082 112.617 552.086 111.973C551.09 111.328 550.064 110.786 549.01 110.347C547.164 109.585 544.835 108.838 542.022 108.105C539.239 107.344 536.485 106.436 533.761 105.381C531.329 104.443 529.103 103.154 527.081 101.514C525.06 99.873 523.492 98.0273 522.379 95.9766C521.266 93.9258 520.709 91.1865 520.709 87.7588C520.709 83.6865 522.027 80.2002 524.664 77.2998C527.301 74.3994 530.333 72.5391 533.761 71.7188C537.188 70.8984 540.646 70.4883 544.132 70.4883C547.589 70.4883 551.148 71.0156 554.811 72.0703C558.502 73.125 561.285 74.4434 563.16 76.0254C565.006 77.5781 565.46 78.9844 564.522 80.2441L560.963 85.0342C559.762 86.6748 558.15 86.8066 556.129 85.4297C554.84 84.5508 553.067 83.5693 550.812 82.4854C548.585 81.4014 546.256 80.8594 543.824 80.8594C542.096 80.8594 540.499 81.0059 539.034 81.2988C537.599 81.5918 536.324 82.2949 535.211 83.4082C534.098 84.5215 533.541 85.8984 533.541 87.5391C533.541 89.1211 533.951 90.4102 534.771 91.4062C535.592 92.373 536.5 93.1055 537.496 93.6035C538.492 94.0723 539.503 94.4678 540.528 94.79C543.692 95.8154 546.52 96.7236 549.01 97.5146C551.5 98.2764 553.8 99.126 555.909 100.063C558.839 101.382 561.08 102.7 562.633 104.019C564.186 105.337 565.46 107.139 566.456 109.424C567.481 111.709 567.994 114.434 567.994 117.598C567.994 122.285 566.5 126.167 563.512 129.243C560.523 132.29 557.198 134.253 553.536 135.132C549.903 136.04 546.358 136.494 542.901 136.494C537.804 136.494 533.658 135.996 530.465 135C527.271 134.033 524.239 132.466 521.368 130.298ZM581.178 135C579.127 135 578.102 133.901 578.102 131.704V75.2783C578.102 73.0811 579.127 71.9824 581.178 71.9824H618.883C621.08 71.9824 622.179 72.9346 622.179 74.8389V80.0244C622.179 81.9287 621.08 82.8809 618.883 82.8809H590.934V96.8555H616.554C618.751 96.8555 619.85 97.8076 619.85 99.7119V104.897C619.85 106.802 618.751 107.754 616.554 107.754H590.934V124.102H620.289C622.486 124.102 623.585 125.054 623.585 126.958V132.144C623.585 134.048 622.486 135 620.289 135H581.178ZM631.1 103.491C631.1 93.3838 633.663 85.3564 638.79 79.4092C643.917 73.4619 651.314 70.4883 660.982 70.4883C666.549 70.4883 671.266 71.3525 675.133 73.0811C679 74.8096 681.725 77.3145 683.307 80.5957C684.361 82.7637 684.186 84.2285 682.779 84.9902L677.506 87.8027C675.66 88.7988 674.137 88.2422 672.936 86.1328C672.174 84.7852 670.753 83.5693 668.673 82.4854C666.622 81.4014 664.205 80.8594 661.422 80.8594C655.27 80.8594 650.963 82.8076 648.502 86.7041C646.041 90.5713 644.811 96.167 644.811 103.491C644.811 110.815 646.041 116.426 648.502 120.322C650.963 124.189 655.27 126.123 661.422 126.123C664.732 126.123 667.516 125.376 669.771 123.882C672.057 122.388 673.639 120.967 674.518 119.619C675.953 117.422 677.477 116.865 679.088 117.949L684.361 121.465C685.797 122.432 685.943 123.896 684.801 125.859C683.102 128.789 680.187 131.294 676.056 133.374C671.925 135.454 666.9 136.494 660.982 136.494C651.461 136.494 644.093 133.521 638.878 127.573C633.692 121.626 631.1 113.599 631.1 103.491ZM694.425 83.2324C692.228 83.2324 691.129 82.2803 691.129 80.376V74.8389C691.129 72.9346 692.228 71.9824 694.425 71.9824H739.601C741.798 71.9824 742.896 72.9346 742.896 74.8389V80.376C742.896 82.2803 741.798 83.2324 739.601 83.2324H723.429V132.583C723.429 134.194 722.696 135 721.231 135H712.794C711.329 135 710.597 134.194 710.597 132.583V83.2324H694.425Z"/>
</mask>
<path d="M14.1074 135C12.0566 135 11.0312 133.901 11.0312 131.704V75.2783C11.0312 73.0811 12.0566 71.9824 14.1074 71.9824H26.8516C28.5508 71.9824 29.7666 73.1543 30.499 75.498L42.4082 114.038C42.9355 115.708 43.3018 117.085 43.5068 118.169C43.7119 119.224 43.8877 120.483 44.0342 121.948H44.2979C44.4443 120.483 44.6201 119.224 44.8252 118.169C45.0303 117.085 45.3965 115.708 45.9238 114.038L57.833 75.498C58.5654 73.1543 59.7812 71.9824 61.4805 71.9824H74.2246C76.2754 71.9824 77.3008 73.0811 77.3008 75.2783V131.704C77.3008 133.901 76.2754 135 74.2246 135H67.5449C65.4941 135 64.4688 133.901 64.4688 131.704V95.4053C64.4688 93.6475 64.542 91.8896 64.6885 90.1318H64.3809L51.6807 131.44C50.9482 133.813 49.6885 135 47.9014 135H40.4307C38.6436 135 37.3838 133.813 36.6514 131.44L23.9512 90.1318H23.6436C23.79 91.8896 23.8633 93.6475 23.8633 95.4053V131.704C23.8633 133.901 22.8379 135 20.7871 135H14.1074ZM88.8145 75.7617C87.3203 73.2422 88.0088 71.9824 90.8799 71.9824H98.5703C100.094 71.9824 101.441 72.9932 102.613 75.0146L111.974 91.3184C112.237 91.7578 113.014 93.1348 114.303 95.4492C115.592 97.7344 116.339 99.9609 116.544 102.129H116.72C116.925 99.9609 117.672 97.7344 118.961 95.4492C120.25 93.1348 121.026 91.7578 121.29 91.3184L130.65 75.0146C131.822 72.9932 133.17 71.9824 134.693 71.9824H142.384C145.255 71.9824 145.943 73.2422 144.449 75.7617L123.048 111.929V132.583C123.048 134.194 122.022 135 119.972 135H113.292C111.241 135 110.216 134.194 110.216 132.583V111.929L88.8145 75.7617ZM521.368 130.298C519.552 128.921 519.112 127.529 520.05 126.123L523.434 121.025C524.547 119.355 526.173 119.268 528.312 120.762C529.952 121.904 532.091 123.091 534.728 124.321C537.394 125.522 540.191 126.123 543.121 126.123C545.172 126.123 547.149 125.889 549.054 125.42C550.958 124.951 552.408 124.043 553.404 122.695C554.4 121.348 554.898 119.751 554.898 117.905C554.898 116.587 554.679 115.43 554.239 114.434C553.8 113.438 553.082 112.617 552.086 111.973C551.09 111.328 550.064 110.786 549.01 110.347C547.164 109.585 544.835 108.838 542.022 108.105C539.239 107.344 536.485 106.436 533.761 105.381C531.329 104.443 529.103 103.154 527.081 101.514C525.06 99.873 523.492 98.0273 522.379 95.9766C521.266 93.9258 520.709 91.1865 520.709 87.7588C520.709 83.6865 522.027 80.2002 524.664 77.2998C527.301 74.3994 530.333 72.5391 533.761 71.7188C537.188 70.8984 540.646 70.4883 544.132 70.4883C547.589 70.4883 551.148 71.0156 554.811 72.0703C558.502 73.125 561.285 74.4434 563.16 76.0254C565.006 77.5781 565.46 78.9844 564.522 80.2441L560.963 85.0342C559.762 86.6748 558.15 86.8066 556.129 85.4297C554.84 84.5508 553.067 83.5693 550.812 82.4854C548.585 81.4014 546.256 80.8594 543.824 80.8594C542.096 80.8594 540.499 81.0059 539.034 81.2988C537.599 81.5918 536.324 82.2949 535.211 83.4082C534.098 84.5215 533.541 85.8984 533.541 87.5391C533.541 89.1211 533.951 90.4102 534.771 91.4062C535.592 92.373 536.5 93.1055 537.496 93.6035C538.492 94.0723 539.503 94.4678 540.528 94.79C543.692 95.8154 546.52 96.7236 549.01 97.5146C551.5 98.2764 553.8 99.126 555.909 100.063C558.839 101.382 561.08 102.7 562.633 104.019C564.186 105.337 565.46 107.139 566.456 109.424C567.481 111.709 567.994 114.434 567.994 117.598C567.994 122.285 566.5 126.167 563.512 129.243C560.523 132.29 557.198 134.253 553.536 135.132C549.903 136.04 546.358 136.494 542.901 136.494C537.804 136.494 533.658 135.996 530.465 135C527.271 134.033 524.239 132.466 521.368 130.298ZM581.178 135C579.127 135 578.102 133.901 578.102 131.704V75.2783C578.102 73.0811 579.127 71.9824 581.178 71.9824H618.883C621.08 71.9824 622.179 72.9346 622.179 74.8389V80.0244C622.179 81.9287 621.08 82.8809 618.883 82.8809H590.934V96.8555H616.554C618.751 96.8555 619.85 97.8076 619.85 99.7119V104.897C619.85 106.802 618.751 107.754 616.554 107.754H590.934V124.102H620.289C622.486 124.102 623.585 125.054 623.585 126.958V132.144C623.585 134.048 622.486 135 620.289 135H581.178ZM631.1 103.491C631.1 93.3838 633.663 85.3564 638.79 79.4092C643.917 73.4619 651.314 70.4883 660.982 70.4883C666.549 70.4883 671.266 71.3525 675.133 73.0811C679 74.8096 681.725 77.3145 683.307 80.5957C684.361 82.7637 684.186 84.2285 682.779 84.9902L677.506 87.8027C675.66 88.7988 674.137 88.2422 672.936 86.1328C672.174 84.7852 670.753 83.5693 668.673 82.4854C666.622 81.4014 664.205 80.8594 661.422 80.8594C655.27 80.8594 650.963 82.8076 648.502 86.7041C646.041 90.5713 644.811 96.167 644.811 103.491C644.811 110.815 646.041 116.426 648.502 120.322C650.963 124.189 655.27 126.123 661.422 126.123C664.732 126.123 667.516 125.376 669.771 123.882C672.057 122.388 673.639 120.967 674.518 119.619C675.953 117.422 677.477 116.865 679.088 117.949L684.361 121.465C685.797 122.432 685.943 123.896 684.801 125.859C683.102 128.789 680.187 131.294 676.056 133.374C671.925 135.454 666.9 136.494 660.982 136.494C651.461 136.494 644.093 133.521 638.878 127.573C633.692 121.626 631.1 113.599 631.1 103.491ZM694.425 83.2324C692.228 83.2324 691.129 82.2803 691.129 80.376V74.8389C691.129 72.9346 692.228 71.9824 694.425 71.9824H739.601C741.798 71.9824 742.896 72.9346 742.896 74.8389V80.376C742.896 82.2803 741.798 83.2324 739.601 83.2324H723.429V132.583C723.429 134.194 722.696 135 721.231 135H712.794C711.329 135 710.597 134.194 710.597 132.583V83.2324H694.425Z" fill="white"/>
<path d="M30.499 75.498L41.0087 72.2505L41.0035 72.2337L40.9983 72.217L30.499 75.498ZM42.4082 114.038L31.8985 117.286L31.9086 117.318L31.9188 117.351L42.4082 114.038ZM43.5068 118.169L32.6986 120.214L32.7037 120.241L32.7091 120.269L43.5068 118.169ZM44.0342 121.948L33.0888 123.043L34.0793 132.948H44.0342V121.948ZM44.2979 121.948V132.948H54.2527L55.2433 123.043L44.2979 121.948ZM44.8252 118.169L55.623 120.269L55.6283 120.241L55.6335 120.214L44.8252 118.169ZM45.9238 114.038L56.4132 117.351L56.4235 117.318L56.4335 117.286L45.9238 114.038ZM57.833 75.498L47.3337 72.217L47.3285 72.2337L47.3233 72.2505L57.833 75.498ZM64.6885 90.1318L75.6505 91.0453L76.6433 79.1318H64.6885V90.1318ZM64.3809 90.1318V79.1318H56.2546L53.8666 86.8992L64.3809 90.1318ZM51.6807 131.44L62.1914 134.684L62.195 134.673L51.6807 131.44ZM36.6514 131.44L26.1371 134.673L26.1406 134.684L36.6514 131.44ZM23.9512 90.1318L34.4655 86.8992L32.0774 79.1318H23.9512V90.1318ZM23.6436 90.1318V79.1318H11.6888L12.6816 91.0453L23.6436 90.1318ZM14.1074 135V124C14.9795 124 17.6009 124.269 19.8419 126.671C21.9495 128.929 22.0312 131.289 22.0312 131.704H11.0312H0.03125C0.03125 134.317 0.625668 138.325 3.75869 141.682C7.02511 145.181 11.1846 146 14.1074 146V135ZM11.0312 131.704H22.0312V75.2783H11.0312H0.03125V131.704H11.0312ZM11.0312 75.2783H22.0312C22.0312 75.6938 21.9495 78.0537 19.8419 80.3119C17.6009 82.713 14.9795 82.9824 14.1074 82.9824V71.9824V60.9824C11.1846 60.9824 7.02511 61.8012 3.75869 65.3009C0.625668 68.6577 0.03125 72.6656 0.03125 75.2783H11.0312ZM14.1074 71.9824V82.9824H26.8516V71.9824V60.9824H14.1074V71.9824ZM26.8516 71.9824V82.9824C25.9862 82.9824 24.9755 82.8277 23.9324 82.4083C22.8879 81.9884 22.042 81.3961 21.4041 80.7813C20.2149 79.6351 19.951 78.623 19.9997 78.7791L30.499 75.498L40.9983 72.217C40.3147 70.0293 39.0766 67.2595 36.6716 64.9413C33.9993 62.3656 30.5285 60.9824 26.8516 60.9824V71.9824ZM30.499 75.498L19.9893 78.7456L31.8985 117.286L42.4082 114.038L52.9179 110.791L41.0087 72.2505L30.499 75.498ZM42.4082 114.038L31.9188 117.351C32.3814 118.815 32.6073 119.731 32.6986 120.214L43.5068 118.169L54.3151 116.124C53.9963 114.439 53.4897 112.601 52.8976 110.726L42.4082 114.038ZM43.5068 118.169L32.7091 120.269C32.8308 120.895 32.9646 121.801 33.0888 123.043L44.0342 121.948L54.9796 120.854C54.8108 119.165 54.593 117.553 54.3046 116.069L43.5068 118.169ZM44.0342 121.948V132.948H44.2979V121.948V110.948H44.0342V121.948ZM44.2979 121.948L55.2433 123.043C55.3674 121.801 55.5012 120.895 55.623 120.269L44.8252 118.169L34.0274 116.069C33.739 117.553 33.5213 119.165 33.3524 120.854L44.2979 121.948ZM44.8252 118.169L55.6335 120.214C55.7248 119.731 55.9507 118.815 56.4132 117.351L45.9238 114.038L35.4344 110.726C34.8423 112.601 34.3358 114.439 34.0169 116.124L44.8252 118.169ZM45.9238 114.038L56.4335 117.286L68.3427 78.7456L57.833 75.498L47.3233 72.2505L35.4142 110.791L45.9238 114.038ZM57.833 75.498L68.3323 78.7791C68.3811 78.623 68.1172 79.6351 66.9279 80.7813C66.29 81.3961 65.4441 81.9884 64.3997 82.4083C63.3565 82.8277 62.3458 82.9824 61.4805 82.9824V71.9824V60.9824C57.8035 60.9824 54.3327 62.3656 51.6605 64.9413C49.2554 67.2595 48.0174 70.0293 47.3337 72.217L57.833 75.498ZM61.4805 71.9824V82.9824H74.2246V71.9824V60.9824H61.4805V71.9824ZM74.2246 71.9824V82.9824C73.3525 82.9824 70.7312 82.713 68.4901 80.3119C66.3825 78.0537 66.3008 75.6938 66.3008 75.2783H77.3008H88.3008C88.3008 72.6656 87.7064 68.6577 84.5733 65.3009C81.3069 61.8012 77.1475 60.9824 74.2246 60.9824V71.9824ZM77.3008 75.2783H66.3008V131.704H77.3008H88.3008V75.2783H77.3008ZM77.3008 131.704H66.3008C66.3008 131.289 66.3825 128.929 68.4901 126.671C70.7312 124.269 73.3525 124 74.2246 124V135V146C77.1475 146 81.3069 145.181 84.5733 141.682C87.7064 138.325 88.3008 134.317 88.3008 131.704H77.3008ZM74.2246 135V124H67.5449V135V146H74.2246V135ZM67.5449 135V124C68.417 124 71.0384 124.269 73.2794 126.671C75.387 128.929 75.4688 131.289 75.4688 131.704H64.4688H53.4688C53.4688 134.317 54.0632 138.325 57.1962 141.682C60.4626 145.181 64.6221 146 67.5449 146V135ZM64.4688 131.704H75.4688V95.4053H64.4688H53.4688V131.704H64.4688ZM64.4688 95.4053H75.4688C75.4688 93.9534 75.5292 92.5004 75.6505 91.0453L64.6885 90.1318L53.7265 89.2183C53.5548 91.2789 53.4688 93.3415 53.4688 95.4053H64.4688ZM64.6885 90.1318V79.1318H64.3809V90.1318V101.132H64.6885V90.1318ZM64.3809 90.1318L53.8666 86.8992L41.1664 128.208L51.6807 131.44L62.195 134.673L74.8952 93.3644L64.3809 90.1318ZM51.6807 131.44L41.1699 128.196C41.1707 128.194 41.187 128.141 41.2259 128.048C41.2647 127.954 41.3308 127.809 41.4336 127.626C41.6369 127.262 42.0131 126.697 42.6446 126.103C44.1282 124.705 46.0929 124 47.9014 124V135V146C51.4969 146 54.9851 144.701 57.7284 142.118C60.2168 139.774 61.4936 136.945 62.1914 134.684L51.6807 131.44ZM47.9014 135V124H40.4307V135V146H47.9014V135ZM40.4307 135V124C42.2391 124 44.2039 124.705 45.6874 126.103C46.3189 126.697 46.6951 127.262 46.8985 127.626C47.0013 127.809 47.0674 127.954 47.1062 128.048C47.1451 128.141 47.1613 128.194 47.1621 128.196L36.6514 131.44L26.1406 134.684C26.8384 136.945 28.1153 139.774 30.6036 142.118C33.3469 144.701 36.8351 146 40.4307 146V135ZM36.6514 131.44L47.1657 128.208L34.4655 86.8992L23.9512 90.1318L13.4369 93.3644L26.1371 134.673L36.6514 131.44ZM23.9512 90.1318V79.1318H23.6436V90.1318V101.132H23.9512V90.1318ZM23.6436 90.1318L12.6816 91.0453C12.8028 92.5004 12.8633 93.9534 12.8633 95.4053H23.8633H34.8633C34.8633 93.3415 34.7773 91.2789 34.6056 89.2183L23.6436 90.1318ZM23.8633 95.4053H12.8633V131.704H23.8633H34.8633V95.4053H23.8633ZM23.8633 131.704H12.8633C12.8633 131.289 12.945 128.929 15.0526 126.671C17.2937 124.269 19.915 124 20.7871 124V135V146C23.71 146 27.8694 145.181 31.1358 141.682C34.2689 138.325 34.8633 134.317 34.8633 131.704H23.8633ZM20.7871 135V124H14.1074V135V146H20.7871V135ZM88.8145 75.7617L98.2812 70.1599L98.2759 70.1509L88.8145 75.7617ZM102.613 75.0146L112.153 69.5377L112.141 69.5178L112.13 69.4978L102.613 75.0146ZM111.974 91.3184L102.434 96.7953L102.487 96.8871L102.541 96.9778L111.974 91.3184ZM114.303 95.4492L104.693 100.802L104.707 100.828L104.722 100.854L114.303 95.4492ZM116.544 102.129L105.593 103.165L106.535 113.129H116.544V102.129ZM116.72 102.129V113.129H126.728L127.671 103.165L116.72 102.129ZM118.961 95.4492L128.542 100.854L128.556 100.828L128.571 100.802L118.961 95.4492ZM121.29 91.3184L130.722 96.9778L130.777 96.8871L130.83 96.7953L121.29 91.3184ZM130.65 75.0146L121.134 69.4978L121.122 69.5178L121.111 69.5377L130.65 75.0146ZM144.449 75.7617L134.988 70.1509L134.982 70.1599L144.449 75.7617ZM123.048 111.929L113.581 106.327L112.048 108.918V111.929H123.048ZM110.216 111.929H121.216V108.918L119.683 106.327L110.216 111.929ZM88.8145 75.7617L98.2759 70.1509C98.2799 70.1577 98.3572 70.2874 98.461 70.5287C98.5618 70.763 98.7306 71.2017 98.8613 71.8148C99.1182 73.0197 99.3321 75.514 97.8628 78.2025C96.3712 80.9318 94.0925 82.133 92.8058 82.5884C92.1703 82.8133 91.6666 82.9034 91.3818 82.942C91.0895 82.9816 90.9102 82.9824 90.8799 82.9824V71.9824V60.9824C89.494 60.9824 87.5354 61.1164 85.4659 61.8489C83.2892 62.6192 80.3935 64.2928 78.5576 67.652C76.7441 70.9704 76.8866 74.252 77.3448 76.4017C77.7883 78.4818 78.651 80.1887 79.353 81.3726L88.8145 75.7617ZM90.8799 71.9824V82.9824H98.5703V71.9824V60.9824H90.8799V71.9824ZM98.5703 71.9824V82.9824C96.6997 82.9824 95.1416 82.304 94.1236 81.5405C93.2512 80.8862 92.9845 80.3379 93.0967 80.5315L102.613 75.0146L112.13 69.4978C110.121 66.0321 105.842 60.9824 98.5703 60.9824V71.9824ZM102.613 75.0146L93.0737 80.4915L102.434 96.7953L111.974 91.3184L121.513 85.8415L112.153 69.5377L102.613 75.0146ZM111.974 91.3184L102.541 96.9778C102.539 96.9737 102.552 96.9962 102.587 97.0568C102.621 97.114 102.665 97.1907 102.722 97.2895C102.835 97.4879 102.984 97.7506 103.172 98.0832C103.546 98.7476 104.052 99.6516 104.693 100.802L114.303 95.4492L123.913 90.0968C122.67 87.8659 121.785 86.2905 121.406 85.6589L111.974 91.3184ZM114.303 95.4492L104.722 100.854C105.405 102.065 105.56 102.814 105.593 103.165L116.544 102.129L127.495 101.093C127.118 97.1075 125.778 93.4037 123.883 90.0447L114.303 95.4492ZM116.544 102.129V113.129H116.72V102.129V91.1289H116.544V102.129ZM116.72 102.129L127.671 103.165C127.704 102.814 127.858 102.065 128.542 100.854L118.961 95.4492L109.38 90.0447C107.485 93.4037 106.146 97.1075 105.769 101.093L116.72 102.129ZM118.961 95.4492L128.571 100.802C129.211 99.6516 129.717 98.7476 130.092 98.0832C130.279 97.7506 130.429 97.4879 130.542 97.2895C130.599 97.1907 130.643 97.114 130.676 97.0568C130.711 96.9962 130.725 96.9737 130.722 96.9778L121.29 91.3184L111.858 85.6589C111.479 86.2905 110.593 87.8659 109.351 90.0968L118.961 95.4492ZM121.29 91.3184L130.83 96.7953L140.19 80.4915L130.65 75.0146L121.111 69.5377L111.75 85.8415L121.29 91.3184ZM130.65 75.0146L140.167 80.5315C140.279 80.3379 140.012 80.8862 139.14 81.5405C138.122 82.304 136.564 82.9824 134.693 82.9824V71.9824V60.9824C127.421 60.9824 123.143 66.0321 121.134 69.4978L130.65 75.0146ZM134.693 71.9824V82.9824H142.384V71.9824V60.9824H134.693V71.9824ZM142.384 71.9824V82.9824C142.354 82.9824 142.174 82.9816 141.882 82.942C141.597 82.9034 141.093 82.8133 140.458 82.5884C139.171 82.133 136.893 80.9318 135.401 78.2025C133.932 75.514 134.145 73.0197 134.402 71.8148C134.533 71.2017 134.702 70.763 134.803 70.5287C134.907 70.2874 134.984 70.1577 134.988 70.1509L144.449 75.7617L153.911 81.3726C154.613 80.1887 155.475 78.4818 155.919 76.4017C156.377 74.252 156.52 70.9704 154.706 67.652C152.87 64.2928 149.975 62.6192 147.798 61.8489C145.728 61.1164 143.77 60.9824 142.384 60.9824V71.9824ZM144.449 75.7617L134.982 70.1599L113.581 106.327L123.048 111.929L132.515 117.531L153.916 81.3636L144.449 75.7617ZM123.048 111.929H112.048V132.583H123.048H134.048V111.929H123.048ZM123.048 132.583H112.048C112.048 130.891 112.72 127.917 115.483 125.746C117.741 123.972 119.856 124 119.972 124V135V146C122.138 146 125.792 145.625 129.075 143.045C132.863 140.069 134.048 135.886 134.048 132.583H123.048ZM119.972 135V124H113.292V135V146H119.972V135ZM113.292 135V124C113.408 124 115.523 123.972 117.781 125.746C120.544 127.917 121.216 130.891 121.216 132.583H110.216H99.2158C99.2158 135.886 100.4 140.069 104.189 143.045C107.472 145.625 111.125 146 113.292 146V135ZM110.216 132.583H121.216V111.929H110.216H99.2158V132.583H110.216ZM110.216 111.929L119.683 106.327L98.2812 70.1599L88.8145 75.7617L79.3477 81.3636L100.749 117.531L110.216 111.929ZM521.368 130.298L514.723 139.064L514.731 139.07L514.74 139.076L521.368 130.298ZM520.05 126.123L529.202 132.225L529.208 132.216L529.214 132.207L520.05 126.123ZM523.434 121.025L514.281 114.924L514.275 114.933L514.269 114.942L523.434 121.025ZM528.312 120.762L522.012 129.779L522.018 129.784L522.025 129.788L528.312 120.762ZM534.728 124.321L530.076 134.289L530.142 134.32L530.209 134.35L534.728 124.321ZM549.01 110.347L553.241 100.193L553.223 100.186L553.206 100.179L549.01 110.347ZM542.022 108.105L539.119 118.715L539.184 118.733L539.25 118.75L542.022 108.105ZM533.761 105.381L537.732 95.1226L537.725 95.1199L537.718 95.1172L533.761 105.381ZM554.811 72.0703L551.766 82.6407L551.777 82.6439L551.789 82.6471L554.811 72.0703ZM563.16 76.0254L556.067 84.4326L556.073 84.4377L556.079 84.4429L563.16 76.0254ZM564.522 80.2441L555.698 73.677L555.693 73.6831L564.522 80.2441ZM560.963 85.0342L552.134 78.4731L552.11 78.5045L552.087 78.5361L560.963 85.0342ZM556.129 85.4297L549.932 94.5182L549.936 94.521L556.129 85.4297ZM550.812 82.4854L545.997 92.3756L546.022 92.3879L546.047 92.4001L550.812 82.4854ZM539.034 81.2988L536.877 70.5124L536.856 70.5167L536.835 70.521L539.034 81.2988ZM534.771 91.4062L526.28 98.399L526.332 98.4614L526.384 98.523L534.771 91.4062ZM537.496 93.6035L532.577 103.442L532.694 103.501L532.812 103.557L537.496 93.6035ZM540.528 94.79L543.92 84.3258L543.873 84.3108L543.826 84.2961L540.528 94.79ZM549.01 97.5146L545.68 107.998L545.736 108.016L545.792 108.034L549.01 97.5146ZM555.909 100.063L560.423 90.0323L560.4 90.0219L560.377 90.0115L555.909 100.063ZM566.456 109.424L556.372 113.819L556.396 113.873L556.42 113.927L566.456 109.424ZM563.512 129.243L571.365 136.945L571.383 136.927L571.402 136.908L563.512 129.243ZM553.536 135.132L550.969 124.436L550.919 124.448L550.868 124.46L553.536 135.132ZM530.465 135L533.74 124.499L533.696 124.485L533.652 124.472L530.465 135ZM521.368 130.298L528.013 121.532C528.075 121.579 528.393 121.825 528.792 122.314C529.197 122.811 529.775 123.672 530.166 124.909C530.576 126.207 530.692 127.655 530.435 129.103C530.186 130.5 529.652 131.55 529.202 132.225L520.05 126.123L510.897 120.021C508.908 123.006 507.798 127.135 509.187 131.534C510.38 135.312 512.947 137.718 514.723 139.064L521.368 130.298ZM520.05 126.123L529.214 132.207L532.598 127.109L523.434 121.025L514.269 114.942L510.885 120.04L520.05 126.123ZM523.434 121.025L532.586 127.127C532.214 127.685 531.501 128.56 530.306 129.327C529.044 130.137 527.576 130.61 526.082 130.691C524.666 130.767 523.58 130.476 522.954 130.242C522.344 130.014 522.024 129.788 522.012 129.779L528.312 120.762L534.611 111.744C532.656 110.378 529.25 108.488 524.894 108.723C519.809 108.998 516.263 111.951 514.281 114.924L523.434 121.025ZM528.312 120.762L522.025 129.788C524.358 131.413 527.101 132.901 530.076 134.289L534.728 124.321L539.379 114.353C537.081 113.281 535.547 112.396 534.598 111.735L528.312 120.762ZM534.728 124.321L530.209 134.35C534.298 136.193 538.637 137.123 543.121 137.123V126.123V115.123C541.746 115.123 540.489 114.852 539.246 114.292L534.728 124.321ZM543.121 126.123V137.123C546.017 137.123 548.88 136.791 551.683 136.101L549.054 125.42L546.425 114.739C545.419 114.986 544.326 115.123 543.121 115.123V126.123ZM549.054 125.42L551.683 136.101C555.634 135.129 559.477 132.986 562.25 129.234L553.404 122.695L544.558 116.157C544.897 115.699 545.313 115.326 545.731 115.065C546.13 114.815 546.404 114.744 546.425 114.739L549.054 125.42ZM553.404 122.695L562.25 129.234C564.788 125.801 565.898 121.853 565.898 117.905H554.898H543.898C543.898 117.831 543.91 117.577 544.024 117.212C544.141 116.835 544.328 116.469 544.558 116.157L553.404 122.695ZM554.898 117.905H565.898C565.898 115.374 565.476 112.651 564.303 109.994L554.239 114.434L544.175 118.874C543.882 118.208 543.898 117.8 543.898 117.905H554.898ZM554.239 114.434L564.303 109.994C562.92 106.859 560.691 104.438 558.062 102.737L552.086 111.973L546.11 121.208C545.827 121.025 545.462 120.737 545.093 120.315C544.719 119.887 544.406 119.396 544.175 118.874L554.239 114.434ZM552.086 111.973L558.062 102.737C556.534 101.749 554.926 100.895 553.241 100.193L549.01 110.347L544.779 120.501C545.203 120.677 545.646 120.908 546.11 121.208L552.086 111.973ZM549.01 110.347L553.206 100.179C550.741 99.161 547.895 98.2678 544.795 97.4605L542.022 108.105L539.25 118.75C541.775 119.408 543.588 120.009 544.813 120.515L549.01 110.347ZM542.022 108.105L544.926 97.4956C542.509 96.8341 540.111 96.0437 537.732 95.1226L533.761 105.381L529.79 115.639C532.86 116.827 535.97 117.853 539.119 118.715L542.022 108.105ZM533.761 105.381L537.718 95.1172C536.361 94.5941 535.138 93.886 534.013 92.9726L527.081 101.514L520.149 110.055C523.067 112.423 526.297 114.293 529.804 115.644L533.761 105.381ZM527.081 101.514L534.013 92.9726C532.981 92.1349 532.397 91.3744 532.046 90.7286L522.379 95.9766L512.712 101.225C514.587 104.68 517.138 107.611 520.149 110.055L527.081 101.514ZM522.379 95.9766L532.046 90.7286C532.101 90.8291 532.009 90.6989 531.906 90.1935C531.803 89.685 531.709 88.8953 531.709 87.7588H520.709H509.709C509.709 92.2214 510.409 96.983 512.712 101.225L522.379 95.9766ZM520.709 87.7588H531.709C531.709 86.3058 532.085 85.4898 532.803 84.6992L524.664 77.2998L516.525 69.9004C511.97 74.9106 509.709 81.0672 509.709 87.7588H520.709ZM524.664 77.2998L532.803 84.6992C534.127 83.2429 535.28 82.6658 536.321 82.4167L533.761 71.7188L531.201 61.0208C525.386 62.4123 520.474 65.5559 516.525 69.9004L524.664 77.2998ZM533.761 71.7188L536.321 82.4167C538.919 81.7948 541.517 81.4883 544.132 81.4883V70.4883V59.4883C539.774 59.4883 535.458 60.002 531.201 61.0208L533.761 71.7188ZM544.132 70.4883V81.4883C546.46 81.4883 548.994 81.8421 551.766 82.6407L554.811 72.0703L557.855 61.5C553.303 60.1891 548.718 59.4883 544.132 59.4883V70.4883ZM554.811 72.0703L551.789 82.6471C554.74 83.4904 555.862 84.2596 556.067 84.4326L563.16 76.0254L570.254 67.6182C566.709 64.6271 562.264 62.7596 557.832 61.4935L554.811 72.0703ZM563.16 76.0254L556.079 84.4429C556.322 84.6476 555.108 83.7641 554.417 81.6248C554.026 80.4122 553.85 78.9177 554.141 77.3093C554.428 75.7276 555.081 74.506 555.698 73.677L564.522 80.2441L573.347 86.8113C575.784 83.537 576.752 79.1961 575.353 74.8644C574.208 71.3189 571.844 68.9559 570.242 67.6079L563.16 76.0254ZM564.522 80.2441L555.693 73.6831L552.134 78.4731L560.963 85.0342L569.792 91.5952L573.352 86.8052L564.522 80.2441ZM560.963 85.0342L552.087 78.5361C552.848 77.4971 554.791 75.6591 557.957 75.4002C560.661 75.1789 562.272 76.3049 562.322 76.3384L556.129 85.4297L549.936 94.521C552.007 95.9315 555.435 97.68 559.751 97.3269C564.527 96.9361 567.877 94.2119 569.838 91.5323L560.963 85.0342ZM556.129 85.4297L562.326 76.3412C560.393 75.0232 558.07 73.7694 555.576 72.5706L550.812 82.4854L546.047 92.4001C548.064 93.3693 549.287 94.0783 549.932 94.5182L556.129 85.4297ZM550.812 82.4854L555.626 72.5951C551.928 70.7948 547.956 69.8594 543.824 69.8594V80.8594V91.8594C544.556 91.8594 545.241 92.0079 545.997 92.3756L550.812 82.4854ZM543.824 80.8594V69.8594C541.481 69.8594 539.152 70.0573 536.877 70.5124L539.034 81.2988L541.191 92.0852C541.846 91.9544 542.71 91.8594 543.824 91.8594V80.8594ZM539.034 81.2988L536.835 70.521C533.126 71.2778 529.952 73.1107 527.433 75.63L535.211 83.4082L542.989 91.1864C542.875 91.3008 542.653 91.4909 542.316 91.6773C541.972 91.8667 541.599 92.0022 541.234 92.0767L539.034 81.2988ZM535.211 83.4082L527.433 75.63C524.162 78.901 522.541 83.1179 522.541 87.5391H533.541H544.541C544.541 87.9837 544.461 88.6464 544.157 89.3986C543.849 90.1597 543.413 90.7629 542.989 91.1864L535.211 83.4082ZM533.541 87.5391H522.541C522.541 91.0764 523.496 95.0179 526.28 98.399L534.771 91.4062L543.263 84.4135C543.786 85.0485 544.132 85.7323 544.331 86.3571C544.521 86.9559 544.541 87.3854 544.541 87.5391H533.541ZM534.771 91.4062L526.384 98.523C528.032 100.466 530.081 102.194 532.577 103.442L537.496 93.6035L542.415 83.7648C542.656 83.8851 542.842 84.0125 542.973 84.1181C543.102 84.2217 543.16 84.2905 543.159 84.2895L534.771 91.4062ZM537.496 93.6035L532.812 103.557C534.247 104.232 535.72 104.809 537.23 105.284L540.528 94.79L543.826 84.2961C543.286 84.1262 542.738 83.913 542.18 83.6505L537.496 93.6035ZM540.528 94.79L537.137 105.254C540.316 106.285 543.164 107.2 545.68 107.998L549.01 97.5146L552.34 87.0308C549.875 86.2478 547.068 85.3463 543.92 84.3258L540.528 94.79ZM549.01 97.5146L545.792 108.034C547.91 108.681 549.787 109.38 551.442 110.115L555.909 100.063L560.377 90.0115C557.813 88.8721 555.09 87.8715 552.227 86.9957L549.01 97.5146ZM555.909 100.063L551.395 110.095C553.859 111.203 555.065 112.023 555.513 112.404L562.633 104.019L569.752 95.6333C567.095 93.3771 563.819 91.5603 560.423 90.0323L555.909 100.063ZM562.633 104.019L555.513 112.404C555.532 112.42 555.9 112.734 556.372 113.819L566.456 109.424L576.54 105.028C575.02 101.543 572.839 98.254 569.752 95.6333L562.633 104.019ZM566.456 109.424L556.42 113.927C556.666 114.475 556.994 115.591 556.994 117.598H567.994H578.994C578.994 113.276 578.297 108.943 576.492 104.921L566.456 109.424ZM567.994 117.598H556.994C556.994 119.715 556.421 120.755 555.622 121.579L563.512 129.243L571.402 136.908C576.579 131.579 578.994 124.856 578.994 117.598H567.994ZM563.512 129.243L555.658 121.541C553.919 123.315 552.365 124.101 550.969 124.436L553.536 135.132L556.103 145.828C562.031 144.405 567.128 141.265 571.365 136.945L563.512 129.243ZM553.536 135.132L550.868 124.46C548.036 125.168 545.388 125.494 542.901 125.494V136.494V147.494C547.329 147.494 551.771 146.912 556.204 145.803L553.536 135.132ZM542.901 136.494V125.494C538.397 125.494 535.472 125.039 533.74 124.499L530.465 135L527.189 145.501C531.844 146.953 537.211 147.494 542.901 147.494V136.494ZM530.465 135L533.652 124.472C531.794 123.909 529.914 122.967 527.997 121.519L521.368 130.298L514.74 139.076C518.564 141.964 522.749 144.157 527.277 145.528L530.465 135ZM590.934 82.8809V71.8809H579.934V82.8809H590.934ZM590.934 96.8555H579.934V107.855H590.934V96.8555ZM590.934 107.754V96.7539H579.934V107.754H590.934ZM590.934 124.102H579.934V135.102H590.934V124.102ZM581.178 135V124C582.05 124 584.671 124.269 586.912 126.671C589.02 128.929 589.102 131.289 589.102 131.704H578.102H567.102C567.102 134.317 567.696 138.325 570.829 141.682C574.095 145.181 578.255 146 581.178 146V135ZM578.102 131.704H589.102V75.2783H578.102H567.102V131.704H578.102ZM578.102 75.2783H589.102C589.102 75.6938 589.02 78.0537 586.912 80.3119C584.671 82.713 582.05 82.9824 581.178 82.9824V71.9824V60.9824C578.255 60.9824 574.095 61.8012 570.829 65.3009C567.696 68.6577 567.102 72.6656 567.102 75.2783H578.102ZM581.178 71.9824V82.9824H618.883V71.9824V60.9824H581.178V71.9824ZM618.883 71.9824V82.9824C618.641 82.9824 616.406 82.9639 614.151 81.0091C611.594 78.7935 611.179 76.025 611.179 74.8389H622.179H633.179C633.179 71.7484 632.214 67.5517 628.559 64.384C625.205 61.477 621.322 60.9824 618.883 60.9824V71.9824ZM622.179 74.8389H611.179V80.0244H622.179H633.179V74.8389H622.179ZM622.179 80.0244H611.179C611.179 78.8382 611.594 76.0698 614.151 73.8542C616.406 71.8994 618.641 71.8809 618.883 71.8809V82.8809V93.8809C621.322 93.8809 625.205 93.3862 628.559 90.4793C632.214 87.3115 633.179 83.1149 633.179 80.0244H622.179ZM618.883 82.8809V71.8809H590.934V82.8809V93.8809H618.883V82.8809ZM590.934 82.8809H579.934V96.8555H590.934H601.934V82.8809H590.934ZM590.934 96.8555V107.855H616.554V96.8555V85.8555H590.934V96.8555ZM616.554 96.8555V107.855C616.312 107.855 614.077 107.837 611.821 105.882C609.265 103.667 608.85 100.898 608.85 99.7119H619.85H630.85C630.85 96.6214 629.885 92.4248 626.23 89.257C622.876 86.3501 618.993 85.8555 616.554 85.8555V96.8555ZM619.85 99.7119H608.85V104.897H619.85H630.85V99.7119H619.85ZM619.85 104.897H608.85C608.85 103.711 609.265 100.943 611.821 98.7272C614.077 96.7724 616.312 96.7539 616.554 96.7539V107.754V118.754C618.993 118.754 622.876 118.259 626.23 115.352C629.885 112.185 630.85 107.988 630.85 104.897H619.85ZM616.554 107.754V96.7539H590.934V107.754V118.754H616.554V107.754ZM590.934 107.754H579.934V124.102H590.934H601.934V107.754H590.934ZM590.934 124.102V135.102H620.289V124.102V113.102H590.934V124.102ZM620.289 124.102V135.102C620.047 135.102 617.812 135.083 615.557 133.128C613 130.913 612.585 128.144 612.585 126.958H623.585H634.585C634.585 123.868 633.62 119.671 629.965 116.503C626.611 113.596 622.728 113.102 620.289 113.102V124.102ZM623.585 126.958H612.585V132.144H623.585H634.585V126.958H623.585ZM623.585 132.144H612.585C612.585 130.957 613 128.189 615.557 125.973C617.812 124.019 620.047 124 620.289 124V135V146C622.728 146 626.611 145.505 629.965 142.598C633.62 139.431 634.585 135.234 634.585 132.144H623.585ZM620.289 135V124H581.178V135V146H620.289V135ZM683.307 80.5957L673.398 85.373L673.407 85.3904L673.415 85.4078L683.307 80.5957ZM682.779 84.9902L687.956 94.6961L687.987 94.6794L688.018 94.6624L682.779 84.9902ZM677.506 87.8027L672.329 78.0969L672.305 78.1096L672.282 78.1225L677.506 87.8027ZM672.936 86.1328L663.359 91.5454L663.368 91.5608L663.377 91.576L672.936 86.1328ZM668.673 82.4854L663.532 92.2104L663.561 92.2254L663.589 92.2402L668.673 82.4854ZM648.502 86.7041L657.782 92.6097L657.792 92.5939L657.802 92.578L648.502 86.7041ZM648.502 120.322L639.202 126.196L639.212 126.212L639.222 126.228L648.502 120.322ZM669.771 123.882L663.752 114.675L663.724 114.693L663.697 114.711L669.771 123.882ZM674.518 119.619L665.309 113.603L665.304 113.61L674.518 119.619ZM679.088 117.949L672.948 127.076L672.967 127.089L672.986 127.102L679.088 117.949ZM684.361 121.465L690.506 112.341L690.485 112.327L690.463 112.312L684.361 121.465ZM684.801 125.859L675.294 120.326L675.29 120.333L675.285 120.34L684.801 125.859ZM638.878 127.573L630.587 134.802L630.597 134.814L630.607 134.825L638.878 127.573ZM631.1 103.491H642.1C642.1 95.2454 644.162 90.0242 647.122 86.5915L638.79 79.4092L630.459 72.2268C623.164 80.6887 620.1 91.5222 620.1 103.491H631.1ZM638.79 79.4092L647.122 86.5915C649.685 83.6178 653.71 81.4883 660.982 81.4883V70.4883V59.4883C648.919 59.4883 638.149 63.306 630.459 72.2268L638.79 79.4092ZM660.982 70.4883V81.4883C665.465 81.4883 668.559 82.1914 670.644 83.1235L675.133 73.0811L679.622 63.0386C673.973 60.5137 667.632 59.4883 660.982 59.4883V70.4883ZM675.133 73.0811L670.644 83.1235C672.547 83.974 673.124 84.8043 673.398 85.373L683.307 80.5957L693.215 75.8184C690.325 69.8246 685.453 65.6451 679.622 63.0386L675.133 73.0811ZM683.307 80.5957L673.415 85.4078C673.415 85.4071 673.408 85.3929 673.396 85.3656C673.384 85.3384 673.366 85.2957 673.345 85.2381C673.303 85.1261 673.238 84.9366 673.175 84.6765C673.056 84.1809 672.896 83.2413 673.044 82.0097C673.201 80.7027 673.686 79.2536 674.636 77.9158C675.566 76.6075 676.665 75.7921 677.54 75.318L682.779 84.9902L688.018 94.6624C691.551 92.7488 694.334 89.2425 694.887 84.6309C695.34 80.8576 694.12 77.6793 693.198 75.7836L683.307 80.5957ZM682.779 84.9902L677.603 75.2844L672.329 78.0969L677.506 87.8027L682.682 97.5086L687.956 94.6961L682.779 84.9902ZM677.506 87.8027L672.282 78.1225C673.263 77.5926 675.749 76.7026 678.754 77.8004C681.399 78.7669 682.425 80.5669 682.494 80.6896L672.936 86.1328L663.377 91.576C664.648 93.8081 667.035 96.9411 671.204 98.4642C675.732 100.119 679.903 99.0089 682.73 97.483L677.506 87.8027ZM672.936 86.1328L682.512 80.7202C680.294 76.7973 676.817 74.3253 673.756 72.7305L668.673 82.4854L663.589 92.2402C664.067 92.4893 664.207 92.6194 664.147 92.5681C664.08 92.5111 663.725 92.192 663.359 91.5454L672.936 86.1328ZM668.673 82.4854L673.813 72.7603C669.891 70.6872 665.641 69.8594 661.422 69.8594V80.8594V91.8594C662.769 91.8594 663.353 92.1155 663.532 92.2104L668.673 82.4854ZM661.422 80.8594V69.8594C652.91 69.8594 644.332 72.7064 639.202 80.8302L648.502 86.7041L657.802 92.578C657.853 92.4978 657.865 92.4542 658.111 92.3427C658.479 92.1763 659.458 91.8594 661.422 91.8594V80.8594ZM648.502 86.7041L639.222 80.7985C635.152 87.1933 633.811 95.2138 633.811 103.491H644.811H655.811C655.811 97.1202 656.93 93.9493 657.782 92.6097L648.502 86.7041ZM644.811 103.491H633.811C633.811 111.777 635.155 119.79 639.202 126.196L648.502 120.322L657.802 114.448C656.927 113.062 655.811 109.853 655.811 103.491H644.811ZM648.502 120.322L639.222 126.228C644.367 134.314 652.944 137.123 661.422 137.123V126.123V115.123C659.448 115.123 658.459 114.807 658.083 114.638C657.829 114.524 657.823 114.48 657.782 114.417L648.502 120.322ZM661.422 126.123V137.123C666.406 137.123 671.422 135.983 675.846 133.053L669.771 123.882L663.697 114.711C663.61 114.769 663.059 115.123 661.422 115.123V126.123ZM669.771 123.882L675.791 133.089C678.584 131.263 681.634 128.843 683.731 125.628L674.518 119.619L665.304 113.61C665.525 113.271 665.613 113.25 665.322 113.512C665.045 113.76 664.55 114.153 663.752 114.675L669.771 123.882ZM674.518 119.619L683.726 125.636C683.723 125.641 683.677 125.71 683.584 125.824C683.492 125.938 683.335 126.117 683.105 126.331C682.656 126.749 681.805 127.413 680.512 127.886C679.141 128.387 677.599 128.548 676.071 128.291C674.615 128.047 673.563 127.49 672.948 127.076L679.088 117.949L685.228 108.822C682.153 106.754 677.706 105.488 672.962 107.222C668.969 108.681 666.585 111.649 665.309 113.603L674.518 119.619ZM679.088 117.949L672.986 127.102L678.26 130.617L684.361 121.465L690.463 112.312L685.19 108.797L679.088 117.949ZM684.361 121.465L678.217 130.589C676.749 129.6 674.914 127.495 674.602 124.383C674.351 121.864 675.292 120.329 675.294 120.326L684.801 125.859L694.307 131.393C695.452 129.427 696.892 126.178 696.493 122.194C696.036 117.618 693.409 114.296 690.506 112.341L684.361 121.465ZM684.801 125.859L675.285 120.34C674.984 120.86 674.007 122.09 671.108 123.549L676.056 133.374L681.003 143.199C686.366 140.498 691.219 136.718 694.316 131.378L684.801 125.859ZM676.056 133.374L671.108 123.549C668.88 124.671 665.648 125.494 660.982 125.494V136.494V147.494C668.153 147.494 674.969 146.237 681.003 143.199L676.056 133.374ZM660.982 136.494V125.494C653.924 125.494 649.851 123.403 647.149 120.321L638.878 127.573L630.607 134.825C638.334 143.638 648.998 147.494 660.982 147.494V136.494ZM638.878 127.573L647.169 120.344C644.175 116.911 642.1 111.707 642.1 103.491H631.1H620.1C620.1 115.49 623.209 126.341 630.587 134.802L638.878 127.573ZM723.429 83.2324V72.2324H712.429V83.2324H723.429ZM710.597 83.2324H721.597V72.2324H710.597V83.2324ZM694.425 83.2324V72.2324C694.667 72.2324 696.902 72.251 699.157 74.2057C701.714 76.4214 702.129 79.1898 702.129 80.376H691.129H680.129C680.129 83.4665 681.094 87.6631 684.749 90.8309C688.103 93.7378 691.986 94.2324 694.425 94.2324V83.2324ZM691.129 80.376H702.129V74.8389H691.129H680.129V80.376H691.129ZM691.129 74.8389H702.129C702.129 76.025 701.714 78.7935 699.157 81.0091C696.902 82.9639 694.667 82.9824 694.425 82.9824V71.9824V60.9824C691.986 60.9824 688.103 61.477 684.749 64.384C681.094 67.5517 680.129 71.7484 680.129 74.8389H691.129ZM694.425 71.9824V82.9824H739.601V71.9824V60.9824H694.425V71.9824ZM739.601 71.9824V82.9824C739.359 82.9824 737.124 82.9639 734.868 81.0091C732.312 78.7935 731.896 76.025 731.896 74.8389H742.896H753.896C753.896 71.7484 752.932 67.5517 749.277 64.384C745.923 61.477 742.04 60.9824 739.601 60.9824V71.9824ZM742.896 74.8389H731.896V80.376H742.896H753.896V74.8389H742.896ZM742.896 80.376H731.896C731.896 79.1898 732.312 76.4214 734.868 74.2057C737.124 72.251 739.359 72.2324 739.601 72.2324V83.2324V94.2324C742.04 94.2324 745.923 93.7378 749.277 90.8309C752.932 87.6631 753.896 83.4665 753.896 80.376H742.896ZM739.601 83.2324V72.2324H723.429V83.2324V94.2324H739.601V83.2324ZM723.429 83.2324H712.429V132.583H723.429H734.429V83.2324H723.429ZM723.429 132.583H712.429C712.429 131.939 712.553 129.402 714.74 126.996C717.108 124.391 719.984 124 721.231 124V135V146C723.944 146 727.918 145.206 731.019 141.795C733.939 138.583 734.429 134.839 734.429 132.583H723.429ZM721.231 135V124H712.794V135V146H721.231V135ZM712.794 135V124C714.042 124 716.917 124.391 719.285 126.996C721.473 129.402 721.597 131.939 721.597 132.583H710.597H699.597C699.597 134.839 700.087 138.583 703.007 141.795C706.107 145.206 710.081 146 712.794 146V135ZM710.597 132.583H721.597V83.2324H710.597H699.597V132.583H710.597ZM710.597 83.2324V72.2324H694.425V83.2324V94.2324H710.597V83.2324Z" fill="black" mask="url(#path-2-outside-1_4_120)"/>
</svg>
